<svg xmlns="http://www.w3.org/2000/svg" viewBox="0 0 100 100">
  <!-- Asteroide Principal -->
  <path d="M50,10 
           L70,15 
           L85,30 
           L90,50 
           L80,75 
           L60,90 
           L35,85 
           L15,70 
           L10,40 
           L20,20 
           Z" 
        fill="#555555" />
  
  <!-- Sombreamento e detalhes -->
  <path d="M50,10 
           L70,15 
           L85,30 
           L90,50 
           L80,75 
           L60,90 
           L50,87
           L50,10 
           Z" 
        fill="#444444" />
  
  <!-- Crateras -->
  <circle cx="40" cy="30" r="8" fill="#333333" />
  <circle cx="65" cy="45" r="10" fill="#333333" />
  <circle cx="35" cy="60" r="7" fill="#333333" />
  <circle cx="55" cy="70" r="5" fill="#333333" />
  
  <!-- Detalhes das crateras -->
  <circle cx="40" cy="30" r="5" fill="#2A2A2A" />
  <circle cx="65" cy="45" r="7" fill="#2A2A2A" />
  <circle cx="35" cy="60" r="4" fill="#2A2A2A" />
  <circle cx="55" cy="70" r="3" fill="#2A2A2A" />
  
  <!-- Highlights -->
  <circle cx="38" cy="28" r="2" fill="#666666" />
  <circle cx="63" cy="43" r="2" fill="#666666" />
  <circle cx="33" cy="58" r="1" fill="#666666" />
  <circle cx="53" cy="68" r="1" fill="#666666" />
  
  <!-- Pequenos detritos ao redor -->
  <circle cx="92" cy="48" r="2" fill="#555555" />
  <circle cx="87" cy="60" r="1" fill="#555555" />
  <circle cx="75" cy="85" r="2" fill="#555555" />
  <circle cx="15" cy="65" r="2" fill="#555555" />
  <circle cx="12" cy="35" r="1" fill="#555555" />
  <circle cx="25" cy="15" r="2" fill="#555555" />
  
  <!-- Textura de rocha -->
  <line x1="30" y1="20" x2="40" y2="25" stroke="#4A4A4A" stroke-width="1" />
  <line x1="60" y1="25" x2="75" y2="35" stroke="#4A4A4A" stroke-width="1" />
  <line x1="80" y1="60" x2="70" y2="75" stroke="#4A4A4A" stroke-width="1" />
  <line x1="45" y1="80" x2="30" y2="75" stroke="#4A4A4A" stroke-width="1" />
  <line x1="25" y1="55" x2="15" y2="45" stroke="#4A4A4A" stroke-width="1" />
</svg>
