<svg xmlns="http://www.w3.org/2000/svg" viewBox="0 0 100 100">
  <!-- Base circular do canhão -->
  <circle cx="50" cy="50" r="40" fill="#0A2A5E"/>
  
  <!-- Camada interna -->
  <circle cx="50" cy="50" r="35" fill="#103366"/>
  
  <!-- Painel central -->
  <circle cx="50" cy="50" r="25" fill="#1E4B8F"/>
  
  <!-- Detalhe interno -->
  <circle cx="50" cy="50" r="15" fill="#2E69C2"/>
  
  <!-- Núcleo de energia -->
  <circle cx="50" cy="50" r="10" fill="#4B8FE3"/>
  
  <!-- Brilho central -->
  <circle cx="50" cy="50" r="5" fill="#7BB6FF"/>
  
  <!-- Luzes indicadoras ao redor -->
  <circle cx="50" cy="15" r="3" fill="#FF5555"/>
  <circle cx="85" cy="50" r="3" fill="#55FF55"/>
  <circle cx="50" cy="85" r="3" fill="#5555FF"/>
  <circle cx="15" cy="50" r="3" fill="#FFFF55"/>
  
  <!-- Detalhes metálicos -->
  <circle cx="50" cy="50" r="40" fill="none" stroke="#4A6A9A" stroke-width="1.5"/>
  <circle cx="50" cy="50" r="25" fill="none" stroke="#4A6A9A" stroke-width="1"/>
  
  <!-- Linhas de energia radial -->
  <g stroke="#7BB6FF" stroke-width="0.7" opacity="0.7">
    <line x1="50" y1="25" x2="50" y2="35"/>
    <line x1="50" y1="65" x2="50" y2="75"/>
    <line x1="25" y1="50" x2="35" y2="50"/>
    <line x1="65" y1="50" x2="75" y2="50"/>
    
    <line x1="36" y1="36" x2="42" y2="42"/>
    <line x1="58" y1="58" x2="64" y2="64"/>
    <line x1="36" y1="64" x2="42" y2="58"/>
    <line x1="58" y1="42" x2="64" y2="36"/>
  </g>
  
  <!-- Efeito de brilho externo (escudo) -->
  <circle cx="50" cy="50" r="45" fill="none" stroke="#7BB6FF" stroke-width="1" opacity="0.3"/>
  <circle cx="50" cy="50" r="47" fill="none" stroke="#7BB6FF" stroke-width="0.5" opacity="0.2"/>
</svg>
