<svg xmlns="http://www.w3.org/2000/svg" viewBox="0 0 100 100">
  <!-- Círculo externo da explosão -->
  <circle cx="50" cy="50" r="45" fill="#FF6600" opacity="0.3"/>
  
  <!-- Círculo médio da explosão -->
  <circle cx="50" cy="50" r="30" fill="#FF8800" opacity="0.6"/>
  
  <!-- Círculo interno da explosão -->
  <circle cx="50" cy="50" r="15" fill="#FFAA00" opacity="0.9"/>
  
  <!-- Núcleo branco da explosão -->
  <circle cx="50" cy="50" r="8" fill="#FFFFFF"/>
  
  <!-- Raios de explosão externos -->
  <g stroke="#FF6600" stroke-width="2" opacity="0.7">
    <line x1="5" y1="50" x2="25" y2="50"/>
    <line x1="75" y1="50" x2="95" y2="50"/>
    <line x1="50" y1="5" x2="50" y2="25"/>
    <line x1="50" y1="75" x2="50" y2="95"/>
    
    <line x1="15" y1="15" x2="30" y2="30"/>
    <line x1="70" y1="70" x2="85" y2="85"/>
    <line x1="15" y1="85" x2="30" y2="70"/>
    <line x1="70" y1="30" x2="85" y2="15"/>
  </g>
  
  <!-- Raios de explosão internos -->
  <g stroke="#FFAA00" stroke-width="3" opacity="0.8">
    <line x1="30" y1="50" x2="40" y2="50"/>
    <line x1="60" y1="50" x2="70" y2="50"/>
    <line x1="50" y1="30" x2="50" y2="40"/>
    <line x1="50" y1="60" x2="50" y2="70"/>
    
    <line x1="35" y1="35" x2="42" y2="42"/>
    <line x1="58" y1="58" x2="65" y2="65"/>
    <line x1="35" y1="65" x2="42" y2="58"/>
    <line x1="58" y1="42" x2="65" y2="35"/>
  </g>
  
  <!-- Pequenas partículas -->
  <circle cx="30" cy="25" r="2" fill="#FFDD00"/>
  <circle cx="70" cy="35" r="2" fill="#FFDD00"/>
  <circle cx="25" cy="65" r="2" fill="#FFDD00"/>
  <circle cx="65" cy="75" r="2" fill="#FFDD00"/>
  <circle cx="40" cy="15" r="1.5" fill="#FFDD00"/>
  <circle cx="80" cy="45" r="1.5" fill="#FFDD00"/>
  <circle cx="20" cy="55" r="1.5" fill="#FFDD00"/>
  <circle cx="60" cy="85" r="1.5" fill="#FFDD00"/>
</svg>
