<svg xmlns="http://www.w3.org/2000/svg" viewBox="0 0 800 1200">
  <!-- Fundo preto -->
  <rect width="800" height="1200" fill="#000020"/>
  
  <!-- Pequenas estrelas -->
  <g fill="#FFFFFF">
    <!-- Grupo 1 de estrelas pequenas - total 100 -->
    <circle cx="50" cy="60" r="1"/>
    <circle cx="120" cy="30" r="1.2"/>
    <circle cx="200" cy="90" r="0.8"/>
    <circle cx="280" cy="40" r="1"/>
    <circle cx="350" cy="110" r="1.2"/>
    <circle cx="390" cy="75" r="0.7"/>
    <circle cx="450" cy="45" r="1.1"/>
    <circle cx="520" cy="80" r="0.9"/>
    <circle cx="590" cy="25" r="1"/>
    <circle cx="650" cy="110" r="0.8"/>
    <circle cx="700" cy="60" r="1.2"/>
    <circle cx="750" cy="30" r="0.7"/>

    <circle cx="30" cy="150" r="1"/>
    <circle cx="90" cy="200" r="0.8"/>
    <circle cx="150" cy="160" r="1.1"/>
    <circle cx="220" cy="210" r="0.9"/>
    <circle cx="270" cy="180" r="1.2"/>
    <circle cx="330" cy="230" r="0.8"/>
    <circle cx="400" cy="170" r="1"/>
    <circle cx="450" cy="220" r="0.7"/>
    <circle cx="520" cy="190" r="1.1"/>
    <circle cx="580" cy="230" r="0.9"/>
    <circle cx="640" cy="180" r="1"/>
    <circle cx="700" cy="210" r="0.8"/>
    <circle cx="760" cy="160" r="1.2"/>
    
    <!-- Continuar padrão para cobrir a tela -->
    <circle cx="50" cy="280" r="1"/>
    <circle cx="110" cy="330" r="0.8"/>
    <circle cx="180" cy="290" r="1.1"/>
    <circle cx="240" cy="340" r="0.9"/>
    <circle cx="300" cy="310" r="1.2"/>
    <circle cx="370" cy="350" r="0.7"/>
    <circle cx="420" cy="300" r="1"/>
    <circle cx="490" cy="360" r="1.1"/>
    <circle cx="550" cy="320" r="0.9"/>
    <circle cx="610" cy="370" r="1"/>
    <circle cx="680" cy="330" r="0.8"/>
    <circle cx="730" cy="380" r="1.2"/>
    
    <!-- Continue para todos os níveis da tela -->
    <circle cx="40" cy="420" r="0.9"/>
    <circle cx="100" cy="450" r="1.2"/>
    <circle cx="160" cy="410" r="0.8"/>
    <circle cx="230" cy="470" r="1"/>
    <circle cx="290" cy="430" r="1.1"/>
    <circle cx="350" cy="480" r="0.9"/>
    <circle cx="410" cy="420" r="1.2"/>
    <circle cx="480" cy="460" r="0.7"/>
    <circle cx="540" cy="430" r="1"/>
    <circle cx="600" cy="480" r="1.1"/>
    <circle cx="660" cy="440" r="0.9"/>
    <circle cx="720" cy="490" r="0.8"/>
    
    <!-- Parte inferior -->
    <circle cx="20" cy="530" r="1"/>
    <circle cx="80" cy="570" r="0.8"/>
    <circle cx="140" cy="520" r="1.1"/>
    <circle cx="210" cy="580" r="0.9"/>
    <circle cx="260" cy="540" r="1.2"/>
    <circle cx="330" cy="590" r="0.7"/>
    <circle cx="390" cy="550" r="1"/>
    <circle cx="450" cy="600" r="1.1"/>
    <circle cx="500" cy="560" r="0.9"/>
    <circle cx="570" cy="610" r="1"/>
    <circle cx="630" cy="550" r="0.8"/>
    <circle cx="690" cy="600" r="1.2"/>
    <circle cx="750" cy="560" r="0.7"/>
    
    <!-- Mais 50 estrelas para cobrir toda a tela -->
    <circle cx="30" cy="640" r="1"/>
    <circle cx="90" cy="680" r="0.8"/>
    <circle cx="150" cy="630" r="1.1"/>
    <circle cx="220" cy="690" r="0.9"/>
    <circle cx="270" cy="650" r="1.2"/>
    <circle cx="330" cy="700" r="0.7"/>
    <circle cx="400" cy="660" r="1"/>
    <circle cx="450" cy="710" r="1.1"/>
    <circle cx="520" cy="670" r="0.9"/>
    <circle cx="580" cy="720" r="1"/>
    <circle cx="640" cy="680" r="0.8"/>
    <circle cx="700" cy="730" r="1.2"/>
    <circle cx="760" cy="690" r="0.7"/>
    
    <!-- Mais estrelas na parte inferior -->
    <circle cx="50" cy="760" r="1"/>
    <circle cx="110" cy="800" r="0.8"/>
    <circle cx="180" cy="770" r="1.1"/>
    <circle cx="240" cy="810" r="0.9"/>
    <circle cx="300" cy="780" r="1.2"/>
    <circle cx="370" cy="820" r="0.7"/>
    <circle cx="420" cy="790" r="1"/>
    <circle cx="490" cy="830" r="1.1"/>
    <circle cx="550" cy="800" r="0.9"/>
    <circle cx="610" cy="840" r="1"/>
    <circle cx="680" cy="810" r="0.8"/>
    <circle cx="730" cy="850" r="1.2"/>
    
    <!-- Base da tela -->
    <circle cx="40" cy="880" r="0.9"/>
    <circle cx="100" cy="920" r="1.2"/>
    <circle cx="160" cy="890" r="0.8"/>
    <circle cx="230" cy="930" r="1"/>
    <circle cx="290" cy="900" r="1.1"/>
    <circle cx="350" cy="940" r="0.9"/>
    <circle cx="410" cy="910" r="1.2"/>
    <circle cx="480" cy="950" r="0.7"/>
    <circle cx="540" cy="920" r="1"/>
    <circle cx="600" cy="960" r="1.1"/>
    <circle cx="660" cy="930" r="0.9"/>
    <circle cx="720" cy="970" r="0.8"/>
    
    <!-- Última parte -->
    <circle cx="20" cy="990" r="1"/>
    <circle cx="80" cy="1030" r="0.8"/>
    <circle cx="140" cy="1000" r="1.1"/>
    <circle cx="210" cy="1040" r="0.9"/>
    <circle cx="260" cy="1010" r="1.2"/>
    <circle cx="330" cy="1050" r="0.7"/>
    <circle cx="390" cy="1020" r="1"/>
    <circle cx="450" cy="1060" r="1.1"/>
    <circle cx="500" cy="1030" r="0.9"/>
    <circle cx="570" cy="1070" r="1"/>
    <circle cx="630" cy="1040" r="0.8"/>
    <circle cx="690" cy="1080" r="1.2"/>
    <circle cx="750" cy="1050" r="0.7"/>
    
    <circle cx="30" cy="1100" r="1"/>
    <circle cx="90" cy="1140" r="0.8"/>
    <circle cx="150" cy="1110" r="1.1"/>
    <circle cx="220" cy="1150" r="0.9"/>
    <circle cx="270" cy="1120" r="1.2"/>
    <circle cx="330" cy="1160" r="0.7"/>
    <circle cx="400" cy="1130" r="1"/>
    <circle cx="450" cy="1170" r="1.1"/>
    <circle cx="520" cy="1140" r="0.9"/>
    <circle cx="580" cy="1180" r="1"/>
    <circle cx="640" cy="1150" r="0.8"/>
    <circle cx="700" cy="1190" r="1.2"/>
    <circle cx="760" cy="1160" r="0.7"/>
  </g>
  
  <!-- Estrelas médias com brilho -->
  <g>
    <circle cx="70" cy="120" r="1.8" fill="#FFFFFF"/>
    <circle cx="70" cy="120" r="2.5" fill="#FFFFFF" opacity="0.3"/>
    
    <circle cx="200" cy="250" r="1.8" fill="#FFFFFF"/>
    <circle cx="200" cy="250" r="2.5" fill="#FFFFFF" opacity="0.3"/>
    
    <circle cx="350" cy="150" r="1.8" fill="#FFFFFF"/>
    <circle cx="350" cy="150" r="2.5" fill="#FFFFFF" opacity="0.3"/>
    
    <circle cx="480" cy="280" r="1.8" fill="#FFFFFF"/>
    <circle cx="480" cy="280" r="2.5" fill="#FFFFFF" opacity="0.3"/>
    
    <circle cx="600" cy="120" r="1.8" fill="#FFFFFF"/>
    <circle cx="600" cy="120" r="2.5" fill="#FFFFFF" opacity="0.3"/>
    
    <circle cx="720" cy="300" r="1.8" fill="#FFFFFF"/>
    <circle cx="720" cy="300" r="2.5" fill="#FFFFFF" opacity="0.3"/>
    
    <circle cx="100" cy="400" r="1.8" fill="#FFFFFF"/>
    <circle cx="100" cy="400" r="2.5" fill="#FFFFFF" opacity="0.3"/>
    
    <circle cx="250" cy="500" r="1.8" fill="#FFFFFF"/>
    <circle cx="250" cy="500" r="2.5" fill="#FFFFFF" opacity="0.3"/>
    
    <circle cx="400" cy="350" r="1.8" fill="#FFFFFF"/>
    <circle cx="400" cy="350" r="2.5" fill="#FFFFFF" opacity="0.3"/>
    
    <circle cx="550" cy="450" r="1.8" fill="#FFFFFF"/>
    <circle cx="550" cy="450" r="2.5" fill="#FFFFFF" opacity="0.3"/>
    
    <circle cx="700" cy="380" r="1.8" fill="#FFFFFF"/>
    <circle cx="700" cy="380" r="2.5" fill="#FFFFFF" opacity="0.3"/>
    
    <circle cx="150" cy="580" r="1.8" fill="#FFFFFF"/>
    <circle cx="150" cy="580" r="2.5" fill="#FFFFFF" opacity="0.3"/>
    
    <circle cx="300" cy="650" r="1.8" fill="#FFFFFF"/>
    <circle cx="300" cy="650" r="2.5" fill="#FFFFFF" opacity="0.3"/>
    
    <circle cx="450" cy="550" r="1.8" fill="#FFFFFF"/>
    <circle cx="450" cy="550" r="2.5" fill="#FFFFFF" opacity="0.3"/>
    
    <circle cx="600" cy="700" r="1.8" fill="#FFFFFF"/>
    <circle cx="600" cy="700" r="2.5" fill="#FFFFFF" opacity="0.3"/>
    
    <circle cx="750" cy="600" r="1.8" fill="#FFFFFF"/>
    <circle cx="750" cy="600" r="2.5" fill="#FFFFFF" opacity="0.3"/>
    
    <circle cx="200" cy="800" r="1.8" fill="#FFFFFF"/>
    <circle cx="200" cy="800" r="2.5" fill="#FFFFFF" opacity="0.3"/>
    
    <circle cx="350" cy="870" r="1.8" fill="#FFFFFF"/>
    <circle cx="350" cy="870" r="2.5" fill="#FFFFFF" opacity="0.3"/>
    
    <circle cx="500" cy="750" r="1.8" fill="#FFFFFF"/>
    <circle cx="500" cy="750" r="2.5" fill="#FFFFFF" opacity="0.3"/>
    
    <circle cx="650" cy="900" r="1.8" fill="#FFFFFF"/>
    <circle cx="650" cy="900" r="2.5" fill="#FFFFFF" opacity="0.3"/>
    
    <circle cx="120" cy="1000" r="1.8" fill="#FFFFFF"/>
    <circle cx="120" cy="1000" r="2.5" fill="#FFFFFF" opacity="0.3"/>
    
    <circle cx="280" cy="1080" r="1.8" fill="#FFFFFF"/>
    <circle cx="280" cy="1080" r="2.5" fill="#FFFFFF" opacity="0.3"/>
    
    <circle cx="430" cy="950" r="1.8" fill="#FFFFFF"/>
    <circle cx="430" cy="950" r="2.5" fill="#FFFFFF" opacity="0.3"/>
    
    <circle cx="580" cy="1100" r="1.8" fill="#FFFFFF"/>
    <circle cx="580" cy="1100" r="2.5" fill="#FFFFFF" opacity="0.3"/>
    
    <circle cx="720" cy="1020" r="1.8" fill="#FFFFFF"/>
    <circle cx="720" cy="1020" r="2.5" fill="#FFFFFF" opacity="0.3"/>
  </g>
  
  <!-- Estrelas grandes com efeito de brilho -->
  <g>
    <circle cx="150" cy="180" r="2.2" fill="#FFFFFF"/>
    <circle cx="150" cy="180" r="3.5" fill="#FFFFFF" opacity="0.4"/>
    <circle cx="150" cy="180" r="4.5" fill="#FFFFFF" opacity="0.2"/>
    
    <circle cx="380" cy="100" r="2.2" fill="#FFFFFF"/>
    <circle cx="380" cy="100" r="3.5" fill="#FFFFFF" opacity="0.4"/>
    <circle cx="380" cy="100" r="4.5" fill="#FFFFFF" opacity="0.2"/>
    
    <circle cx="630" cy="200" r="2.2" fill="#FFFFFF"/>
    <circle cx="630" cy="200" r="3.5" fill="#FFFFFF" opacity="0.4"/>
    <circle cx="630" cy="200" r="4.5" fill="#FFFFFF" opacity="0.2"/>
    
    <circle cx="250" cy="380" r="2.2" fill="#FFFFFF"/>
    <circle cx="250" cy="380" r="3.5" fill="#FFFFFF" opacity="0.4"/>
    <circle cx="250" cy="380" r="4.5" fill="#FFFFFF" opacity="0.2"/>
    
    <circle cx="480" cy="320" r="2.2" fill="#FFFFFF"/>
    <circle cx="480" cy="320" r="3.5" fill="#FFFFFF" opacity="0.4"/>
    <circle cx="480" cy="320" r="4.5" fill="#FFFFFF" opacity="0.2"/>
    
    <circle cx="700" cy="420" r="2.2" fill="#FFFFFF"/>
    <circle cx="700" cy="420" r="3.5" fill="#FFFFFF" opacity="0.4"/>
    <circle cx="700" cy="420" r="4.5" fill="#FFFFFF" opacity="0.2"/>
    
    <circle cx="180" cy="550" r="2.2" fill="#FFFFFF"/>
    <circle cx="180" cy="550" r="3.5" fill="#FFFFFF" opacity="0.4"/>
    <circle cx="180" cy="550" r="4.5" fill="#FFFFFF" opacity="0.2"/>
    
    <circle cx="400" cy="500" r="2.2" fill="#FFFFFF"/>
    <circle cx="400" cy="500" r="3.5" fill="#FFFFFF" opacity="0.4"/>
    <circle cx="400" cy="500" r="4.5" fill="#FFFFFF" opacity="0.2"/>
    
    <circle cx="620" cy="580" r="2.2" fill="#FFFFFF"/>
    <circle cx="620" cy="580" r="3.5" fill="#FFFFFF" opacity="0.4"/>
    <circle cx="620" cy="580" r="4.5" fill="#FFFFFF" opacity="0.2"/>
    
    <circle cx="300" cy="700" r="2.2" fill="#FFFFFF"/>
    <circle cx="300" cy="700" r="3.5" fill="#FFFFFF" opacity="0.4"/>
    <circle cx="300" cy="700" r="4.5" fill="#FFFFFF" opacity="0.2"/>
    
    <circle cx="520" cy="650" r="2.2" fill="#FFFFFF"/>
    <circle cx="520" cy="650" r="3.5" fill="#FFFFFF" opacity="0.4"/>
    <circle cx="520" cy="650" r="4.5" fill="#FFFFFF" opacity="0.2"/>
    
    <circle cx="720" cy="750" r="2.2" fill="#FFFFFF"/>
    <circle cx="720" cy="750" r="3.5" fill="#FFFFFF" opacity="0.4"/>
    <circle cx="720" cy="750" r="4.5" fill="#FFFFFF" opacity="0.2"/>
    
    <circle cx="180" cy="880" r="2.2" fill="#FFFFFF"/>
    <circle cx="180" cy="880" r="3.5" fill="#FFFFFF" opacity="0.4"/>
    <circle cx="180" cy="880" r="4.5" fill="#FFFFFF" opacity="0.2"/>
    
    <circle cx="400" cy="830" r="2.2" fill="#FFFFFF"/>
    <circle cx="400" cy="830" r="3.5" fill="#FFFFFF" opacity="0.4"/>
    <circle cx="400" cy="830" r="4.5" fill="#FFFFFF" opacity="0.2"/>
    
    <circle cx="650" cy="930" r="2.2" fill="#FFFFFF"/>
    <circle cx="650" cy="930" r="3.5" fill="#FFFFFF" opacity="0.4"/>
    <circle cx="650" cy="930" r="4.5" fill="#FFFFFF" opacity="0.2"/>
    
    <circle cx="250" cy="1050" r="2.2" fill="#FFFFFF"/>
    <circle cx="250" cy="1050" r="3.5" fill="#FFFFFF" opacity="0.4"/>
    <circle cx="250" cy="1050" r="4.5" fill="#FFFFFF" opacity="0.2"/>
    
    <circle cx="480" cy="1000" r="2.2" fill="#FFFFFF"/>
    <circle cx="480" cy="1000" r="3.5" fill="#FFFFFF" opacity="0.4"/>
    <circle cx="480" cy="1000" r="4.5" fill="#FFFFFF" opacity="0.2"/>
    
    <circle cx="700" cy="1100" r="2.2" fill="#FFFFFF"/>
    <circle cx="700" cy="1100" r="3.5" fill="#FFFFFF" opacity="0.4"/>
    <circle cx="700" cy="1100" r="4.5" fill="#FFFFFF" opacity="0.2"/>
  </g>
  
  <!-- Nebulosa azul distante -->
  <ellipse cx="200" cy="400" rx="180" ry="120" fill="#0033AA" opacity="0.05"/>
  <ellipse cx="600" cy="800" rx="200" ry="150" fill="#0055AA" opacity="0.04"/>
  
  <!-- Nebulosa vermelha distante -->
  <ellipse cx="700" cy="300" rx="150" ry="100" fill="#AA0033" opacity="0.03"/>
  <ellipse cx="300" cy="900" rx="180" ry="130" fill="#AA0044" opacity="0.03"/>
</svg>
